<svg width="15" height="21" viewBox="0 0 15 21" fill="none" xmlns="http://www.w3.org/2000/svg">
<path d="M7.50423 10.1743C7.97421 10.1743 8.37584 9.98973 8.70913 9.62068C9.04242 9.25162 9.20871 8.80759 9.208 8.28858C9.2073 7.76958 9.0396 7.32671 8.7049 6.95999C8.37021 6.59326 7.96752 6.4099 7.49683 6.4099C7.02614 6.4099 6.62451 6.59482 6.29192 6.96465C5.95934 7.33448 5.79305 7.77851 5.79305 8.29674C5.79305 8.81497 5.9604 9.25784 6.29509 9.62534C6.62979 9.99284 7.03283 10.1762 7.50423 10.1754M7.5 19.436C9.48703 17.5293 11.0576 15.5904 12.2118 13.6193C13.366 11.6481 13.9431 9.94273 13.9431 8.50302C13.9431 6.37105 13.3311 4.61124 12.1072 3.2236C10.8818 1.83673 9.34611 1.14329 7.5 1.14329C5.65389 1.14329 4.11817 1.83673 2.89283 3.2236C1.66749 4.61047 1.05552 6.37028 1.05693 8.50302C1.05693 9.94195 1.63402 11.6474 2.78819 13.6193C3.94236 15.5912 5.51296 17.5301 7.5 19.436ZM7.5 21C5.01621 18.5782 3.14543 16.3196 1.88768 14.2242C0.629228 12.1287 0 10.2217 0 8.50302C0 6.03774 0.727875 4.00444 2.18362 2.40313C3.64008 0.801043 5.4122 0 7.5 0C9.5878 0 11.3599 0.801043 12.8164 2.40313C14.2721 4.00444 15 6.03774 15 8.50302C15 10.2217 14.3711 12.1287 13.1134 14.2242C11.8549 16.3196 9.98379 18.5782 7.5 21Z" fill="#696969"/>
</svg>
