<svg width="61" height="61" viewBox="0 0 61 61" fill="none" xmlns="http://www.w3.org/2000/svg">
<path d="M38.125 17.7917H52.1041L38.125 3.8125V17.7917ZM20.3333 0H40.6666L55.9166 15.25V45.75C55.9166 47.0982 55.3811 48.3912 54.4278 49.3445C53.4745 50.2978 52.1815 50.8333 50.8333 50.8333H20.3333C18.9851 50.8333 17.6922 50.2978 16.7389 49.3445C15.7855 48.3912 15.25 47.0982 15.25 45.75V5.08333C15.25 3.73515 15.7855 2.44218 16.7389 1.48887C17.6922 0.535564 18.9851 0 20.3333 0ZM10.1666 10.1667V55.9167H50.8333V61H10.1666C8.81846 61 7.5255 60.4644 6.57219 59.5111C5.61888 58.5578 5.08331 57.2649 5.08331 55.9167V10.1667H10.1666Z" fill="white"/>
</svg>
