<svg width="55" height="48" viewBox="0 0 55 48" fill="none" xmlns="http://www.w3.org/2000/svg">
<path d="M0 39.0833V36.85C0 35.2681 0.395486 33.8145 1.18646 32.4894C1.97743 31.1643 3.07083 30.1519 4.46667 29.4521C7.11875 28.1028 9.87599 27.0326 12.7384 26.2417C15.6008 25.4507 18.5199 25.0552 21.4958 25.0552C22.1472 25.0552 22.659 25.3465 23.0312 25.929C23.4035 26.5115 23.4733 27.1276 23.2406 27.7771C22.9615 28.7542 22.7521 29.7312 22.6125 30.7083C22.4729 31.6854 22.4031 32.6858 22.4031 33.7094C22.4031 35.0587 22.5427 36.3615 22.8219 37.6177C23.101 38.874 23.4965 40.1069 24.0083 41.3167C24.3806 42.1076 24.3461 42.8642 23.905 43.5863C23.464 44.3084 22.847 44.6685 22.0542 44.6667H5.58333C4.04792 44.6667 2.73397 44.1204 1.6415 43.028C0.549028 41.9355 0.00186111 40.6206 0 39.0833ZM41.875 39.0833C43.4104 39.0833 44.7253 38.5371 45.8196 37.4446C46.914 36.3521 47.4602 35.0373 47.4583 33.5C47.4565 31.9627 46.9102 30.6488 45.8196 29.5582C44.729 28.4676 43.4141 27.9204 41.875 27.9167C40.3359 27.9129 39.0219 28.4601 37.9332 29.5582C36.8444 30.6562 36.2972 31.9702 36.2917 33.5C36.2861 35.0298 36.8333 36.3447 37.9332 37.4446C39.0331 38.5445 40.347 39.0908 41.875 39.0833ZM22.3333 22.3333C19.2625 22.3333 16.6337 21.2399 14.4469 19.0531C12.2601 16.8663 11.1667 14.2375 11.1667 11.1667C11.1667 8.09583 12.2601 5.46701 14.4469 3.28021C16.6337 1.0934 19.2625 0 22.3333 0C25.4042 0 28.033 1.0934 30.2198 3.28021C32.4066 5.46701 33.5 8.09583 33.5 11.1667C33.5 14.2375 32.4066 16.8663 30.2198 19.0531C28.033 21.2399 25.4042 22.3333 22.3333 22.3333ZM38.6646 45.225L38.2458 43.2708C37.6875 43.0382 37.1645 42.7944 36.6769 42.5394C36.1893 42.2844 35.6887 41.9699 35.175 41.5958L33.151 42.224C32.5462 42.4101 31.9534 42.3868 31.3727 42.1542C30.7921 41.9215 30.338 41.5493 30.0104 41.0375L29.4521 40.0604C29.1264 39.5021 29.0101 38.8972 29.1031 38.2458C29.1962 37.5944 29.4986 37.0594 30.0104 36.6406L31.5458 35.3146C31.4528 34.6632 31.4062 34.0583 31.4062 33.5C31.4062 32.9417 31.4528 32.3368 31.5458 31.6854L30.0104 30.3594C29.4986 29.9406 29.1962 29.4167 29.1031 28.7877C29.0101 28.1586 29.1264 27.5658 29.4521 27.0094L30.0802 25.9625C30.4059 25.4507 30.8479 25.0785 31.4062 24.8458C31.9646 24.6132 32.5462 24.5899 33.151 24.776L35.175 25.4042C35.6868 25.0319 36.1874 24.7174 36.6769 24.4606C37.1664 24.2038 37.6894 23.9599 38.2458 23.7292L38.6646 21.7052C38.8042 21.0538 39.1187 20.5308 39.6082 20.1363C40.0976 19.7417 40.6671 19.5435 41.3167 19.5417H42.4333C43.0847 19.5417 43.6552 19.751 44.1446 20.1698C44.6341 20.5885 44.9477 21.1236 45.0854 21.775L45.5042 23.7292C46.0625 23.9618 46.5855 24.2177 47.0731 24.4969C47.5607 24.776 48.0613 25.125 48.575 25.5437L50.4594 24.9156C51.1108 24.683 51.7389 24.683 52.3437 24.9156C52.9486 25.1483 53.4139 25.5438 53.7396 26.1021L54.2979 27.0792C54.6236 27.6375 54.7399 28.2424 54.6469 28.8937C54.5538 29.5451 54.2514 30.0802 53.7396 30.499L52.2042 31.825C52.2972 32.3833 52.3437 32.9649 52.3437 33.5698C52.3437 34.1746 52.2972 34.7562 52.2042 35.3146L53.7396 36.6406C54.2514 37.0594 54.5538 37.5833 54.6469 38.2123C54.7399 38.8414 54.6236 39.4342 54.2979 39.9906L53.6698 41.0375C53.3441 41.5493 52.9021 41.9215 52.3437 42.1542C51.7854 42.3868 51.2038 42.4101 50.599 42.224L48.575 41.5958C48.0632 41.9681 47.5625 42.2817 47.0731 42.5366C46.5836 42.7916 46.0606 43.0363 45.5042 43.2708L45.0854 45.2948C44.9458 45.9462 44.6322 46.4701 44.1446 46.8665C43.657 47.2629 43.0866 47.4602 42.4333 47.4583H41.3167C40.6653 47.4583 40.0958 47.249 39.6082 46.8302C39.1206 46.4115 38.806 45.8764 38.6646 45.225Z" fill="white"/>
</svg>
