<svg width="28" height="28" viewBox="0 0 28 28" fill="none" xmlns="http://www.w3.org/2000/svg">
<path d="M25.2052 2.62501H8.49187C8.35484 2.62466 8.21909 2.65137 8.0924 2.70359C7.96571 2.75582 7.85057 2.83254 7.75359 2.92936C7.65661 3.02618 7.5797 3.14118 7.52726 3.26779C7.47482 3.39439 7.44788 3.5301 7.448 3.66713V8.31251L17.1334 11.1563L26.25 8.31251V3.66713C26.2501 3.53002 26.2232 3.39424 26.1707 3.26758C26.1182 3.14092 26.0412 3.02588 25.9441 2.92905C25.847 2.83222 25.7318 2.75552 25.605 2.70334C25.4782 2.65117 25.3424 2.62454 25.2052 2.62501Z" fill="#41A5EE"/>
<path d="M26.25 8.3125H7.448V14L17.1334 15.7063L26.25 14V8.3125Z" fill="#2B7CD3"/>
<path d="M7.448 14V19.6875L16.5637 20.825L26.25 19.6875V14H7.448Z" fill="#185ABD"/>
<path d="M8.49187 25.375H25.2044C25.3416 25.3756 25.4775 25.349 25.6044 25.2969C25.7313 25.2448 25.8466 25.1681 25.9438 25.0713C26.041 24.9744 26.118 24.8593 26.1706 24.7326C26.2231 24.6059 26.2501 24.4701 26.25 24.3329V19.6875H7.448V24.3329C7.44788 24.4699 7.47482 24.6056 7.52726 24.7322C7.5797 24.8588 7.65661 24.9738 7.75359 25.0706C7.85057 25.1675 7.96571 25.2442 8.0924 25.2964C8.21909 25.3486 8.35484 25.3753 8.49187 25.375Z" fill="#103F91"/>
<path opacity="0.1" d="M14.3797 7.17499H7.448V21.3937H14.3797C14.656 21.3924 14.9205 21.2822 15.1161 21.0871C15.3116 20.8921 15.4224 20.6278 15.4245 20.3516V8.21711C15.4224 7.94091 15.3116 7.67664 15.1161 7.48158C14.9205 7.28651 14.656 7.17636 14.3797 7.17499Z" fill="black"/>
<path opacity="0.2" d="M13.8101 7.74374H7.448V21.9625H13.8101C14.0863 21.9611 14.3509 21.851 14.5464 21.6559C14.742 21.4608 14.8528 21.1966 14.8549 20.9204V8.78587C14.8528 8.50967 14.742 8.2454 14.5464 8.05034C14.3509 7.85527 14.0863 7.74512 13.8101 7.74374Z" fill="black"/>
<path opacity="0.2" d="M13.8101 7.74374H7.448V20.825H13.8101C14.0863 20.8236 14.3509 20.7135 14.5464 20.5184C14.742 20.3233 14.8528 20.0591 14.8549 19.7829V8.78587C14.8528 8.50967 14.742 8.2454 14.5464 8.05034C14.3509 7.85527 14.0863 7.74512 13.8101 7.74374Z" fill="black"/>
<path opacity="0.2" d="M13.2405 7.74374H7.448V20.825H13.2405C13.5167 20.8236 13.7812 20.7135 13.9768 20.5184C14.1724 20.3233 14.2832 20.0591 14.2852 19.7829V8.78587C14.2832 8.50967 14.1724 8.2454 13.9768 8.05034C13.7812 7.85527 13.5167 7.74512 13.2405 7.74374Z" fill="black"/>
<path d="M2.79475 7.74375H13.2405C13.5172 7.74352 13.7827 7.85315 13.9786 8.04856C14.1745 8.24398 14.2848 8.50917 14.2852 8.78587V19.2141C14.2848 19.4908 14.1745 19.756 13.9786 19.9514C13.7827 20.1468 13.5172 20.2565 13.2405 20.2562H2.79475C2.65764 20.2567 2.5218 20.2301 2.395 20.1779C2.26821 20.1257 2.15297 20.049 2.0559 19.9522C1.95883 19.8554 1.88184 19.7403 1.82934 19.6137C1.77685 19.487 1.74988 19.3512 1.75 19.2141V8.78587C1.74988 8.64877 1.77685 8.51299 1.82934 8.38633C1.88184 8.25967 1.95883 8.14462 2.0559 8.04779C2.15297 7.95097 2.26821 7.87426 2.395 7.82209C2.5218 7.76991 2.65764 7.74329 2.79475 7.74375Z" fill="url(#paint0_linear_117_74)"/>
<path d="M6.03751 15.7395C6.05793 15.9005 6.07134 16.0408 6.07776 16.1604H6.10226C6.11101 16.0466 6.12997 15.9096 6.15913 15.7491C6.20288 15.5085 6.21338 15.4534 6.23701 15.3423L7.33514 10.6111H8.75613L9.89364 15.2714C9.95932 15.5598 10.0067 15.852 10.0354 16.1464H10.0546C10.0765 15.8599 10.1159 15.5749 10.1728 15.2933L11.0819 10.605H12.3743L10.7783 17.3845H9.26713L8.18476 12.8993C8.15326 12.7698 8.11768 12.6012 8.07801 12.3935C8.03834 12.1858 8.01384 12.0342 8.00451 11.9385H7.98614C7.97389 12.0488 7.94939 12.2124 7.91264 12.4294C7.87589 12.6464 7.84672 12.8074 7.82513 12.9124L6.80751 17.3871H5.27101L3.66626 10.6111H4.97876L5.96838 15.3519C5.99723 15.48 6.0203 15.6093 6.03751 15.7395Z" fill="white"/>
<defs>
<linearGradient id="paint0_linear_117_74" x1="3.93225" y1="6.92475" x2="12.103" y2="21.0752" gradientUnits="userSpaceOnUse">
<stop stop-color="#2368C4"/>
<stop offset="0.5" stop-color="#1A5DBE"/>
<stop offset="1" stop-color="#1146AC"/>
</linearGradient>
</defs>
</svg>
