<svg width="29" height="29" viewBox="0 0 29 29" fill="none" xmlns="http://www.w3.org/2000/svg">
<path d="M15.7083 10.875H22.3541L15.7083 4.22916V10.875ZM7.24992 2.41666H16.9166L24.1666 9.66666V24.1667C24.1666 24.8076 23.912 25.4223 23.4588 25.8755C23.0055 26.3287 22.3909 26.5833 21.7499 26.5833H7.24992C6.60898 26.5833 5.99429 26.3287 5.54108 25.8755C5.08786 25.4223 4.83325 24.8076 4.83325 24.1667V4.83332C4.83325 4.19238 5.08786 3.57769 5.54108 3.12448C5.99429 2.67127 6.60898 2.41666 7.24992 2.41666ZM13.207 15.0317C13.7024 16.1192 14.3308 17.0133 15.0558 17.6296L15.5512 18.0162C14.4999 18.2096 13.0499 18.5479 11.5153 19.14L11.3824 19.1883L11.9866 17.9317C12.5303 16.8804 12.9291 15.9258 13.207 15.0317ZM21.037 19.6354C21.2545 19.4179 21.3633 19.14 21.3753 18.8379C21.4116 18.5962 21.3512 18.3667 21.2303 18.1733C20.8799 17.6054 19.9737 17.3396 18.4753 17.3396L16.9166 17.4242L15.8653 16.7233C15.1041 16.095 14.4153 14.9954 13.932 13.63L13.9803 13.4608C14.3791 11.8537 14.7537 9.90832 13.9562 9.11082C13.8586 9.0161 13.7432 8.94169 13.6167 8.89191C13.4902 8.84213 13.355 8.81797 13.2191 8.82082H12.9291C12.482 8.82082 12.0833 9.29207 11.9745 9.75124C11.5274 11.3583 11.7933 12.2404 12.2403 13.7025V13.7146C11.9383 14.7779 11.5516 16.0104 10.9353 17.255L9.77534 19.43L8.69992 20.0221C7.24992 20.9283 6.56117 21.9433 6.42825 22.5837C6.37992 22.8133 6.40409 23.0187 6.48867 23.2362L6.52492 23.2967L7.10492 23.6712L7.63659 23.8042C8.61534 23.8042 9.727 22.6562 11.2253 20.0946L11.4428 20.01C12.6874 19.6112 14.2341 19.3333 16.3124 19.1037C17.557 19.72 19.0191 19.9979 19.9374 19.9979C20.4691 19.9979 20.8316 19.865 21.037 19.6354ZM20.5416 18.7775L20.6503 18.9104C20.6383 19.0312 20.602 19.0433 20.5416 19.0675H20.4933L20.2637 19.0917C19.7078 19.0917 18.8499 18.8621 17.9678 18.4754C18.0766 18.3546 18.1249 18.3546 18.2458 18.3546C19.9374 18.3546 20.4208 18.6567 20.5416 18.7775ZM9.46117 20.5417C8.67575 21.9796 7.96284 22.7771 7.41909 22.9583C7.4795 22.4992 8.02325 21.7017 8.88117 20.9162L9.46117 20.5417ZM13.1103 12.1921C12.8324 11.1046 12.8203 10.2225 13.0258 9.71499L13.1103 9.56999L13.2916 9.63041C13.497 9.92041 13.5212 10.3071 13.4003 10.9596L13.3641 11.1529L13.1708 12.1437L13.1103 12.1921Z" fill="#EF5350"/>
</svg>
