<svg width="67" height="67" viewBox="0 0 67 67" fill="none" xmlns="http://www.w3.org/2000/svg">
<path d="M50.25 8.375C53.2116 8.375 56.0519 9.55148 58.146 11.6456C60.2402 13.7398 61.4167 16.5801 61.4167 19.5417V41.875C61.4167 44.8366 60.2402 47.6769 58.146 49.771C56.0519 51.8652 53.2116 53.0417 50.25 53.0417H37.0622L23.7683 61.0175C23.3679 61.2577 22.9137 61.3937 22.4472 61.413C21.9807 61.4323 21.5167 61.3343 21.0979 61.128C20.6791 60.9216 20.3187 60.6135 20.0497 60.2318C19.7808 59.8501 19.6119 59.4071 19.5584 58.9433L19.5417 58.625V53.0417H16.75C13.8851 53.0417 11.1297 51.9405 9.05391 49.966C6.97807 47.9915 5.74055 45.2947 5.5973 42.4333L5.58334 41.875V19.5417C5.58334 16.5801 6.75983 13.7398 8.85398 11.6456C10.9481 9.55148 13.7884 8.375 16.75 8.375H50.25ZM42.4333 34.2984C41.9047 33.7802 41.1918 33.4932 40.4515 33.5005C39.7113 33.5079 39.0042 33.8089 38.4859 34.3375C37.8361 35.001 37.0604 35.5281 36.2042 35.8879C35.3481 36.2477 34.4287 36.4331 33.5 36.4331C32.5713 36.4331 31.652 36.2477 30.7958 35.8879C29.9397 35.5281 29.1639 35.001 28.5141 34.3375C27.9932 33.8211 27.2899 33.5305 26.5565 33.5285C25.823 33.5265 25.1182 33.8132 24.5944 34.3267C24.0706 34.8402 23.77 35.5392 23.7575 36.2726C23.745 37.0059 24.0216 37.7148 24.5276 38.2458C25.6972 39.4394 27.0933 40.3876 28.6339 41.0349C30.1746 41.6822 31.8289 42.0156 33.5 42.0156C35.1711 42.0156 36.8254 41.6822 38.3661 41.0349C39.9068 40.3876 41.3028 39.4394 42.4724 38.2458C42.9906 37.7172 43.2776 37.0043 43.2703 36.264C43.263 35.5238 42.9619 34.8167 42.4333 34.2984ZM26.5488 22.3333H26.5208C25.7804 22.3333 25.0704 22.6275 24.5468 23.151C24.0233 23.6745 23.7292 24.3846 23.7292 25.125C23.7292 25.8654 24.0233 26.5755 24.5468 27.099C25.0704 27.6225 25.7804 27.9167 26.5208 27.9167H26.5488C27.2892 27.9167 27.9992 27.6225 28.5228 27.099C29.0463 26.5755 29.3404 25.8654 29.3404 25.125C29.3404 24.3846 29.0463 23.6745 28.5228 23.151C27.9992 22.6275 27.2892 22.3333 26.5488 22.3333ZM40.5071 22.3333H40.4792C39.7388 22.3333 39.0287 22.6275 38.5052 23.151C37.9816 23.6745 37.6875 24.3846 37.6875 25.125C37.6875 25.8654 37.9816 26.5755 38.5052 27.099C39.0287 27.6225 39.7388 27.9167 40.4792 27.9167H40.5071C41.2475 27.9167 41.9576 27.6225 42.4811 27.099C43.0046 26.5755 43.2988 25.8654 43.2988 25.125C43.2988 24.3846 43.0046 23.6745 42.4811 23.151C41.9576 22.6275 41.2475 22.3333 40.5071 22.3333Z" fill="white"/>
</svg>
