<svg width="20" height="5" viewBox="0 0 20 5" fill="none" xmlns="http://www.w3.org/2000/svg">
<path d="M2.27246 0.5C3.20773 0.5 4.0459 1.34952 4.0459 2.5C4.0459 3.65048 3.20773 4.5 2.27246 4.5C1.3373 4.49984 0.5 3.65037 0.5 2.5C0.5 1.34963 1.3373 0.500161 2.27246 0.5Z" fill="white" stroke="#696969"/>
<path d="M10 0.5C10.9353 0.5 11.7734 1.34952 11.7734 2.5C11.7734 3.65048 10.9353 4.5 10 4.5C9.06483 4.49984 8.22754 3.65037 8.22754 2.5C8.22754 1.34963 9.06483 0.500161 10 0.5Z" fill="white" stroke="#696969"/>
<path d="M17.7271 0.5C18.6623 0.5 19.5005 1.34952 19.5005 2.5C19.5005 3.65048 18.6623 4.5 17.7271 4.5C16.7919 4.49984 15.9546 3.65037 15.9546 2.5C15.9546 1.34963 16.7919 0.500161 17.7271 0.5Z" fill="white" stroke="#696969"/>
</svg>
